<svg width="271" height="42" viewBox="0 0 271 42" fill="none" xmlns="http://www.w3.org/2000/svg">
<g clip-path="url(#clip0_1801_2)">
<path fill-rule="evenodd" clip-rule="evenodd" d="M33.7275 12.7561L50.6112 41.9994H65.099L40.9831 0.229492L33.7275 12.7561Z" fill="white"/>
<path fill-rule="evenodd" clip-rule="evenodd" d="M24.1853 0.244629L0 42.0001H14.3587L38.544 0.244629H24.1853Z" fill="white"/>
<path d="M54.1494 19.1704L42.9545 0.29244L65.3443 0.29244L54.1494 19.1704Z" fill="white"/>
<path fill-rule="evenodd" clip-rule="evenodd" d="M36.0242 29.6094H12.7656L12.7656 29.6094H7.22344L0.046875 41.9996H28.8708L36.0242 29.6094ZM31.3528 41.9996H65.0789L57.9255 29.6094H38.5063L31.3528 41.9996Z" fill="white"/>
<path d="M84.688 28.448H92.048V32H80.208V9.664H84.688V28.448ZM105.264 32.224C103.173 32.224 101.253 31.7333 99.5035 30.752C97.7542 29.7707 96.3675 28.416 95.3435 26.688C94.3195 24.9387 93.8075 22.9653 93.8075 20.768C93.8075 18.592 94.3195 16.64 95.3435 14.912C96.3675 13.1627 97.7542 11.7973 99.5035 10.816C101.253 9.83467 103.173 9.344 105.264 9.344C107.376 9.344 109.296 9.83467 111.024 10.816C112.773 11.7973 114.149 13.1627 115.152 14.912C116.176 16.64 116.688 18.592 116.688 20.768C116.688 22.9653 116.176 24.9387 115.152 26.688C114.149 28.416 112.773 29.7707 111.024 30.752C109.274 31.7333 107.354 32.224 105.264 32.224ZM105.264 28.224C106.608 28.224 107.792 27.9253 108.816 27.328C109.84 26.7093 110.64 25.8347 111.216 24.704C111.792 23.5733 112.08 22.2613 112.08 20.768C112.08 19.2747 111.792 17.9733 111.216 16.864C110.64 15.7333 109.84 14.8693 108.816 14.272C107.792 13.6747 106.608 13.376 105.264 13.376C103.92 13.376 102.725 13.6747 101.68 14.272C100.656 14.8693 99.8555 15.7333 99.2795 16.864C98.7035 17.9733 98.4155 19.2747 98.4155 20.768C98.4155 22.2613 98.7035 23.5733 99.2795 24.704C99.8555 25.8347 100.656 26.7093 101.68 27.328C102.725 27.9253 103.92 28.224 105.264 28.224ZM135.573 16.384C135.061 15.4453 134.357 14.7307 133.461 14.24C132.565 13.7493 131.519 13.504 130.325 13.504C129.002 13.504 127.829 13.8027 126.805 14.4C125.781 14.9973 124.981 15.8507 124.405 16.96C123.829 18.0693 123.541 19.3493 123.541 20.8C123.541 22.2933 123.829 23.5947 124.405 24.704C125.002 25.8133 125.823 26.6667 126.869 27.264C127.914 27.8613 129.13 28.16 130.517 28.16C132.223 28.16 133.621 27.712 134.708 26.816C135.797 25.8987 136.511 24.6293 136.853 23.008H129.173V19.584H141.269V23.488C140.97 25.0453 140.33 26.4853 139.349 27.808C138.367 29.1307 137.098 30.1973 135.541 31.008C134.005 31.7973 132.277 32.192 130.357 32.192C128.202 32.192 126.25 31.712 124.501 30.752C122.773 29.7707 121.407 28.416 120.405 26.688C119.423 24.96 118.933 22.9973 118.933 20.8C118.933 18.6027 119.423 16.64 120.405 14.912C121.407 13.1627 122.773 11.808 124.501 10.848C126.25 9.86667 128.191 9.376 130.325 9.376C132.842 9.376 135.029 9.99467 136.885 11.232C138.741 12.448 140.021 14.1653 140.725 16.384H135.573ZM149.063 9.664V32H144.583V9.664H149.063ZM152.401 20.8C152.401 18.6027 152.892 16.64 153.873 14.912C154.876 13.1627 156.231 11.808 157.937 10.848C159.665 9.86667 161.596 9.376 163.729 9.376C166.225 9.376 168.412 10.016 170.289 11.296C172.167 12.576 173.479 14.3467 174.225 16.608H169.073C168.561 15.5413 167.836 14.7413 166.897 14.208C165.98 13.6747 164.913 13.408 163.697 13.408C162.396 13.408 161.233 13.7173 160.209 14.336C159.207 14.9333 158.417 15.7867 157.841 16.896C157.287 18.0053 157.009 19.3067 157.009 20.8C157.009 22.272 157.287 23.5733 157.841 24.704C158.417 25.8133 159.207 26.6773 160.209 27.296C161.233 27.8933 162.396 28.192 163.697 28.192C164.913 28.192 165.98 27.9253 166.897 27.392C167.836 26.8373 168.561 26.0267 169.073 24.96H174.225C173.479 27.2427 172.167 29.024 170.289 30.304C168.433 31.5627 166.247 32.192 163.729 32.192C161.596 32.192 159.665 31.712 157.937 30.752C156.231 29.7707 154.876 28.416 153.873 26.688C152.892 24.96 152.401 22.9973 152.401 20.8ZM193.389 32.224C191.831 32.224 190.423 31.9573 189.165 31.424C187.927 30.8907 186.946 30.1227 186.221 29.12C185.495 28.1173 185.122 26.9333 185.101 25.568H189.901C189.965 26.4853 190.285 27.2107 190.861 27.744C191.458 28.2773 192.269 28.544 193.293 28.544C194.338 28.544 195.159 28.2987 195.757 27.808C196.354 27.296 196.653 26.6347 196.653 25.824C196.653 25.1627 196.45 24.6187 196.045 24.192C195.639 23.7653 195.127 23.4347 194.509 23.2C193.911 22.944 193.079 22.6667 192.013 22.368C190.562 21.9413 189.378 21.5253 188.461 21.12C187.565 20.6933 186.786 20.064 186.125 19.232C185.485 18.3787 185.165 17.248 185.165 15.84C185.165 14.5173 185.495 13.3653 186.157 12.384C186.818 11.4027 187.746 10.656 188.941 10.144C190.135 9.61067 191.501 9.344 193.037 9.344C195.341 9.344 197.207 9.90933 198.637 11.04C200.087 12.1493 200.887 13.7067 201.037 15.712H196.109C196.066 14.944 195.735 14.3147 195.117 13.824C194.519 13.312 193.719 13.056 192.717 13.056C191.842 13.056 191.138 13.28 190.605 13.728C190.093 14.176 189.837 14.8267 189.837 15.68C189.837 16.2773 190.029 16.7787 190.413 17.184C190.818 17.568 191.309 17.888 191.885 18.144C192.482 18.3787 193.314 18.656 194.381 18.976C195.831 19.4027 197.015 19.8293 197.933 20.256C198.85 20.6827 199.639 21.3227 200.301 22.176C200.962 23.0293 201.293 24.1493 201.293 25.536C201.293 26.7307 200.983 27.84 200.365 28.864C199.746 29.888 198.839 30.7093 197.645 31.328C196.45 31.9253 195.031 32.224 193.389 32.224ZM209.657 13.28V18.88H217.177V22.432H209.657V28.352H218.137V32H205.177V9.632H218.137V13.28H209.657ZM234.816 32L226.688 22.048V32H222.208V9.664H226.688V19.68L234.816 9.664H240.224L231.008 20.736L240.48 32H234.816ZM257.123 27.744H248.227L246.755 32H242.051L250.083 9.632H255.299L263.331 32H258.595L257.123 27.744ZM255.907 24.16L252.675 14.816L249.443 24.16H255.907ZM270.813 9.664V32H266.333V9.664H270.813Z" fill="white"/>
</g>
<defs>
<clipPath id="clip0_1801_2">
<rect width="271" height="42" fill="white"/>
</clipPath>
</defs>
</svg>
